<svg id="_x31__x2C_5_px" enable-background="new 0 0 24 24" height="512" viewBox="0 0 24 24" width="512" xmlns="http://www.w3.org/2000/svg"><path d="m.75 24c-.196 0-.388-.077-.53-.22-.197-.197-.269-.488-.186-.755l2.213-7.055c.036-.115.1-.22.186-.306l13.691-13.69c.281-.281.779-.281 1.061 0l4.842 4.842c.293.293.293.768 0 1.061l-13.692 13.691c-.086.085-.19.149-.306.186l-7.055 2.212c-.074.023-.149.034-.224.034zm2.873-7.405-1.728 5.51 5.509-1.728 13.032-13.031-3.781-3.782zm4.182 4.443h.01z"/><path d="m20.805 7.404c-.199 0-.39-.079-.53-.22l-3.459-3.458c-.141-.141-.22-.332-.22-.53s.079-.39.22-.53l1.729-1.729c1.247-1.247 3.273-1.246 4.519 0 .604.603.936 1.405.936 2.259s-.332 1.656-.937 2.26l-1.729 1.729c-.14.14-.33.219-.529.219zm-2.399-4.208 2.398 2.398 1.198-1.199c.32-.321.497-.746.497-1.199s-.177-.879-.497-1.199c-.659-.66-1.736-.663-2.397 0z"/><path d="m7.805 21.788c-.192 0-.384-.073-.53-.22l-4.842-4.842c-.293-.293-.293-.768 0-1.061s.768-.293 1.061 0l4.842 4.842c.293.293.293.768 0 1.061-.148.146-.339.22-.531.22z"/><path d="m6.97 8.788c-.192 0-.384-.073-.53-.22-.293-.293-.293-.768 0-1.061l4.842-4.842c1.055-1.055 2.773-1.055 3.828 0l.691.691c.293.293.293.768 0 1.061s-.768.293-1.061 0l-.691-.691c-.471-.47-1.236-.47-1.707 0l-4.842 4.842c-.146.146-.338.22-.53.22z"/></svg>