<svg viewBox="0 0 512 512" xmlns="http://www.w3.org/2000/svg"><path d="m176 326c-5.519531 0-10 4.480469-10 10s4.480469 10 10 10 10-4.480469 10-10-4.480469-10-10-10zm0 0"/><path d="m502 60c5.523438 0 10-4.476562 10-10s-4.476562-10-10-10h-30v-30c0-5.523438-4.476562-10-10-10s-10 4.476562-10 10v30h-392v-30c0-5.523438-4.476562-10-10-10s-10 4.476562-10 10v30h-30c-5.523438 0-10 4.476562-10 10s4.476562 10 10 10h30v392h-30c-5.523438 0-10 4.476562-10 10s4.476562 10 10 10h30v30c0 5.523438 4.476562 10 10 10s10-4.476562 10-10v-30h392v30c0 5.523438 4.476562 10 10 10s10-4.476562 10-10v-30h30c5.523438 0 10-4.476562 10-10s-4.476562-10-10-10h-30v-392zm-50 392h-392v-392h392zm0 0"/><path d="m116 406h280c5.523438 0 10-4.476562 10-10 0-7.117188 0-235.988281 0-280 0-5.523438-4.476562-10-10-10h-280c-5.523438 0-10 4.476562-10 10v280c0 5.523438 4.476562 10 10 10zm270-80h-65.855469l-30-30 55.855469-55.859375 40 40zm-260-200h260v125.855469l-32.929688-32.925781c-3.90625-3.90625-10.234374-3.90625-14.140624 0l-62.929688 62.925781-82.929688-82.925781c-3.90625-3.90625-10.234374-3.90625-14.140624 0l-52.929688 52.925781zm0 220h10c5.523438 0 10-4.476562 10-10s-4.476562-10-10-10h-10v-45.855469l60-60c10.222656 10.21875 95.539062 95.539063 105.855469 105.855469h-75.855469c-5.523438 0-10 4.476562-10 10s4.476562 10 10 10h170v40h-260zm0 0"/><path d="m276 226c16.542969 0 30-13.457031 30-30s-13.457031-30-30-30-30 13.457031-30 30 13.457031 30 30 30zm0-40c5.515625 0 10 4.484375 10 10s-4.484375 10-10 10-10-4.484375-10-10 4.484375-10 10-10zm0 0"/></svg>