<svg height="512pt" viewBox="-75 0 512 512" width="512pt" xmlns="http://www.w3.org/2000/svg"><path d="m21.164062 512c-11.671874 0-21.164062-9.515625-21.164062-21.226562v-469.546876c0-11.710937 9.492188-21.226562 21.164062-21.226562 5.695313 0 11.027344 2.21875 15.039063 6.273438l320.277344 323.453124c3.988281 3.992188 6.1875 9.324219 6.1875 14.976563 0 11.691406-9.496094 21.226563-21.164063 21.226563h-171.796875l-133.25 139.542968c-3.988281 4.160156-9.554687 6.527344-15.292969 6.527344zm10.835938-464.46875v416.253906l119.296875-124.925781c3.027344-3.15625 7.1875-4.949219 11.5625-4.949219h152.746094zm301.84375 304.789062h.214844zm0 0"/></svg>