<svg height="512pt" viewBox="0 -34 512 512" width="512pt" xmlns="http://www.w3.org/2000/svg"><path d="m512 228.976562c0-89.699218-72.972656-162.671874-162.667969-162.671874-12.519531 0-24.949219 1.441406-37.03125 4.261718v-55.566406c0-8.285156-6.714843-15-15-15h-282.300781c-8.285156 0-15 6.714844-15 15v282.300781c0 8.285157 6.714844 15 15 15h102.273438l-59.945313 108.648438c-2.5625 4.644531-2.480469 10.300781.21875 14.871093 2.695313 4.570313 7.609375 7.375 12.917969 7.375h303.71875c5.304687 0 10.21875-2.804687 12.917968-7.375 2.695313-4.570312 2.777344-10.226562.214844-14.871093l-16.917968-30.667969c79.777343-10.363281 141.601562-78.75 141.601562-161.304688zm-183.820312 84.789063 141.207031-141.207031c4.75 10.0625 8.269531 20.8125 10.363281 32.0625l-136.484375 136.484375zm124.921874-167.351563-140.007812 140.007813-15.085938-27.339844 133.882813-133.882812c7.839844 6.253906 14.960937 13.375 21.210937 21.214843zm-170.195312-32.308593c15.210938-8.816407 32.078125-14.480469 49.515625-16.714844l-79.667969 79.664063-12.792968-23.1875c11.167968-16.21875 25.882812-29.867188 42.945312-39.761719zm90.777344-15.550781c11.25 2.09375 22 5.613281 32.0625 10.359374l-122.820313 122.824219-15.085937-27.339843zm-343.683594 183.746093v-252.300781h252.300781v50.734375c-4.929687 2.226563-9.75 4.699219-14.441406 7.417969-22.855469 13.253906-42.25 32.003906-56.308594 54.363281-.914062.941406-1.710937 2.007813-2.359375 3.1875l-75.367187 136.597656zm65.871094 130.894531 126.453125-229.195312 126.453125 229.195312zm270.351562-52.625 114.707032-114.703124c-7.617188 59.671874-55.03125 107.085937-114.707032 114.703124zm0 0"/></svg>